<?xml version="1.0" encoding="utf-8"?>
<!-- Generator: Adobe Illustrator 19.1.0, SVG Export Plug-In . SVG Version: 6.00 Build 0)  -->
<!DOCTYPE svg PUBLIC "-//W3C//DTD SVG 1.1//EN" "http://www.w3.org/Graphics/SVG/1.1/DTD/svg11.dtd">
<svg version="1.1" id="Layer_1" xmlns="http://www.w3.org/2000/svg" xmlns:xlink="http://www.w3.org/1999/xlink" x="0px" y="0px"
	 viewBox="-364 264 230 33" style="enable-background:new -364 264 230 33;" xml:space="preserve">
<style type="text/css">
	.st0{fill:#FFFFFF;}
</style>
<g>
	<g>
		<path class="st0" d="M-360.9,269.1v-1.4l-1.8-3.7h20.1c6,0,6.9,3,6.1,7.1l-0.4,1.8c-0.6,3.1-2.7,6.6-7.1,6.6h-12.6l-1,5.2h-6.4
			L-360.9,269.1z M-355.6,274.3h9.8c1.5,0,2.2-1,2.5-2.2l0.2-0.8c0.3-1.4-0.2-2.2-2.2-2.2h-9.3L-355.6,274.3z"/>
		<path class="st0" d="M-303.1,269.1v-1.3l4.8-3.8h2.5l-4.6,20.6h-5.9L-303.1,269.1z"/>
		<path class="st0" d="M-262.3,268l-2.8-4h28l-1,5.1h-8.9l-3.6,15.5h-5.9l3.1-15.5h-9L-262.3,268z"/>
		<path class="st0" d="M-230.8,272.1c0.2-1.2,0.5-2.3,0.9-3.2c0.1-0.3,0.4-0.9,0.4-0.9l6.9-4c0,0,0.3,0,2.4,0h6.6
			c6,0,7.2,2.1,6.7,4.7l-0.3,1.6h-5.5c0.3-1.4-0.5-1.9-2.8-1.9h-5.5c-2.2,0-3.3,0.9-3.6,2.5l-0.5,2.5c1.2-1,2.5-1.6,5-1.6h5.9
			c6.1,0,6.8,2,6,5.8l-0.4,1.8c-1,5.1-3.6,5.7-8.5,5.7h-9c-4.9,0-7-1.9-5.9-7.2L-230.8,272.1z M-217.6,280.7c2.4,0,3.2-0.5,3.6-2.3
			c0.3-1.7-0.2-2.3-2.8-2.3h-5.5c-2.6,0-3.3,0.5-3.7,2.3c-0.4,1.8,0.2,2.3,2.6,2.3H-217.6z"/>
		<path class="st0" d="M-201.7,269.1l0.1-1.4l4.6-3.7h18.9l-0.9,4.4h-17l-0.7,3.6c1-0.8,1.9-1.3,4.2-1.3h7.2c4.4,0,6.6,1.4,5.7,6
			l-0.3,1.3c-1.2,6.3-4.6,6.8-11.3,6.8h-5c-6.2,0-9.2-0.6-8.2-5.5l0.2-1.2h5.8c-0.3,1.7,0,2.2,2.9,2.2h5.9c2.9,0,3.4-0.8,3.8-2.8
			c0.5-2.3-0.3-2.6-3.2-2.6h-6.7c-1,0-1.7,0.4-2.1,1.4h-5.2L-201.7,269.1z"/>
		<g>
			<g>
				<g>
					<path class="st0" d="M-313.9,264H-324l-3.9,0.1l-6.1,3.8v1.5c-0.2,0.6-0.4,1.3-0.6,2.1l-1.2,6.2c-1.2,6,1.9,7.5,7.6,7.5h10.2
						c5.7,0,9.4-1.4,10.6-7.5l1.2-6.2C-305,265.4-308.2,264-313.9,264z M-313.1,273.4l-0.4,2.2c-0.6,3-1.5,4.1-4.4,4.1h-8.1
						c-3,0-3.4-1.1-2.8-4.1l0.4-2.2c0.4-2.5,1.4-4.1,4.7-4.1h7.4C-313,269.3-312.6,270.9-313.1,273.4z"/>
				</g>
			</g>
		</g>
		<g>
			<g>
				<path class="st0" d="M-168.6,264h-3.2h-3.8l0.6,1.2v0.5l-0.6,2.6c-0.4,1.9,0.6,2.4,2.4,2.4h3.2c1.8,0,3-0.5,3.4-2.4l0.4-2
					C-165.8,264.5-166.8,264-168.6,264z M-168.6,267.1l-0.1,0.6c-0.2,0.9-0.4,1.2-1.3,1.2h-2.3c-0.9,0-1-0.3-0.8-1.2l0.1-0.6
					c0.1-0.7,0.4-1.2,1.4-1.2h2.1C-168.5,265.9-168.5,266.3-168.6,267.1z"/>
			</g>
		</g>
		<path class="st0" d="M-296.7,284.8l3.1-15.5v-1.4l5.3-3.9c0,0,13.8,0,16.5,0c4.2,0,7.6,1.4,6.8,5.5l-3.1,15.3h-6
			c0,0,2.3-11,2.7-12.7c0.4-1.7-1-2.8-2.3-2.8c-1.3,0-13.6,0-13.6,0l-3,15.5H-296.7z"/>
		<path class="st0" d="M-165.3,284.8l3.1-15.5v-1.5l5.2-3.8c0,0,13.8,0,16.5,0c4.2,0,7.2,1.4,6.4,5.5l-3.1,15.3h-5.5
			c0,0,2.3-11,2.7-12.7c0.4-1.7-1-2.8-2.3-2.8s-13.6,0-13.6,0l-3,15.5H-165.3z"/>
	</g>
	<g>
		<path class="st0" d="M-221.8,289.1c-0.4-0.1-0.9-0.2-1.3-0.2c-1.3,0-1.9,0.7-1.9,1.3c0,1.5,2.7,1.5,2.7,3.4c0,1.5-1.5,2.7-3.6,2.7
			c-0.5,0-1,0-1.5-0.2l0.2-1.1c0.4,0.1,0.9,0.3,1.4,0.3c1.4,0,2.2-0.6,2.2-1.5c0-1.4-2.7-1.4-2.7-3.4c0-1.3,1.2-2.5,3.3-2.5
			c0.5,0,0.9,0,1.4,0.1L-221.8,289.1z"/>
		<path class="st0" d="M-204.7,296.2h-1.5l-0.5-5.4c0-0.5-0.1-0.9,0-1.4l0,0c-0.2,0.5-0.4,0.9-0.6,1.4l-2.8,5.5h-1.5l-0.6-8.1h1.2
			l0.4,5.3c0,0.5,0,1,0,1.5l0,0c0.2-0.5,0.4-1,0.7-1.5l2.8-5.3h1.4l0.6,5.4c0.1,0.5,0.1,1,0.1,1.4l0,0c0.2-0.5,0.3-0.9,0.6-1.3
			l2.7-5.5h1.3L-204.7,296.2z"/>
		<path class="st0" d="M-186.8,289h-3.3l-0.5,2.6h3.2l-0.2,0.9h-3.2l-0.6,2.8h3.3l-0.2,0.9h-4.5l1.7-8.1h4.5L-186.8,289z"/>
		<path class="st0" d="M-176,296.2c-1,0-1.7,0-2.3,0l1.7-8.1c0.7,0,1.7,0,2.6,0c2.8,0,3.8,1.2,3.8,2.9
			C-170.2,293.7-172,296.2-176,296.2z M-174.2,289c-0.5,0-1.1,0-1.4,0l-1.3,6.2c0.3,0,0.8,0.1,1.1,0.1c3.2,0,4.4-2.3,4.4-4.2
			C-171.5,289.9-172.1,289-174.2,289z"/>
		<path class="st0" d="M-155.5,289h-3.3l-0.5,2.6h3.2l-0.2,0.9h-3.2l-0.6,2.8h3.3l-0.2,0.9h-4.5l1.7-8.1h4.5L-155.5,289z"/>
		<path class="st0" d="M-140.1,296.2h-1.4l-2.3-4.9c-0.3-0.6-0.5-1.2-0.7-1.7c-0.2,0.9-0.4,2-0.6,3l-0.8,3.7h-1.1l1.7-8.1h1.4
			l2.3,4.8c0.3,0.6,0.5,1.2,0.7,1.8c0.2-0.9,0.4-1.9,0.5-2.9l0.8-3.7h1.2L-140.1,296.2z"/>
	</g>
</g>
</svg>
